<svg width="20" height="20" viewBox="0 0 20 20" fill="none" xmlns="http://www.w3.org/2000/svg">
<rect width="20" height="20" rx="10" fill="#CB3A31"/>
<path d="M10 11.0666L6.7 14.3666C6.54445 14.5221 6.36389 14.5999 6.15834 14.5999C5.95278 14.5999 5.77778 14.5221 5.63333 14.3666C5.47778 14.2221 5.4 14.0471 5.4 13.8416C5.4 13.636 5.47778 13.461 5.63333 13.3166L8.93333 9.9999L5.63333 6.6999C5.48889 6.55546 5.41667 6.37768 5.41667 6.16657C5.41667 5.95546 5.48889 5.77768 5.63333 5.63324C5.76667 5.48879 5.93889 5.41657 6.15 5.41657C6.36111 5.41657 6.54445 5.48879 6.7 5.63324L10 8.9499L13.3167 5.61657C13.4611 5.47212 13.6361 5.3999 13.8417 5.3999C14.0472 5.3999 14.2278 5.47212 14.3833 5.61657C14.5278 5.77212 14.6 5.95268 14.6 6.15824C14.6 6.36379 14.5278 6.53879 14.3833 6.68324L11.0667 9.98324L14.3667 13.2999C14.5222 13.4555 14.6 13.636 14.6 13.8416C14.6 14.0471 14.5222 14.2221 14.3667 14.3666C14.2222 14.5221 14.0444 14.5999 13.8333 14.5999C13.6222 14.5999 13.45 14.5221 13.3167 14.3666L10 11.0666Z" fill="white"/>
</svg>
