<svg width="20" height="20" viewBox="0 0 20 20" fill="none" xmlns="http://www.w3.org/2000/svg">
<rect width="20" height="20" rx="10" fill="#70C043"/>
<path d="M8.44037 13.6431C8.34862 13.6431 8.25943 13.6253 8.17278 13.5896C8.08614 13.5539 8.01733 13.5004 7.96636 13.4291L5.19878 10.6768C5.06626 10.5443 5 10.3761 5 10.1722C5 9.96831 5.06626 9.80011 5.19878 9.6676C5.33129 9.53508 5.49694 9.46882 5.69572 9.46882C5.8945 9.46882 6.06524 9.53508 6.20795 9.6676L8.44037 11.9153L13.7921 6.56362C13.9348 6.4311 14.103 6.36229 14.2966 6.3572C14.4903 6.3521 14.6534 6.42091 14.7859 6.56362C14.9286 6.70633 15 6.87708 15 7.07585C15 7.27463 14.9286 7.44028 14.7859 7.57279L8.92966 13.4291C8.8685 13.5004 8.7946 13.5539 8.70795 13.5896C8.6213 13.6253 8.53211 13.6431 8.44037 13.6431Z" fill="white"/>
</svg>
